<?xml version="1.0" standalone="no"?>
<!DOCTYPE svg PUBLIC "-//W3C//DTD SVG 20010904//EN"
 "http://www.w3.org/TR/2001/REC-SVG-20010904/DTD/svg10.dtd">
<svg version="1.0" xmlns="http://www.w3.org/2000/svg"
 width="70.000000pt" height="70.000000pt" viewBox="0 0 70.000000 70.000000"
 preserveAspectRatio="xMidYMid meet">
<metadata>
Created by potrace 1.14, written by Peter Selinger 2001-2017
</metadata>
<g transform="translate(0.000000,70.000000) scale(0.100000,-0.100000)"
fill="#000000" stroke="none">
<path d="M325 658 c-17 -18 -29 -37 -27 -42 2 -6 0 -8 -4 -4 -9 10 -195 -173
-188 -184 3 -5 0 -7 -8 -6 -7 2 -12 -3 -10 -10 1 -8 -1 -11 -6 -8 -7 4 -62
-46 -62 -57 0 -9 72 -77 81 -77 5 0 9 -4 9 -10 0 -12 233 -250 246 -250 5 0
85 76 178 169 l168 168 -137 136 c-75 76 -142 134 -148 130 -5 -3 -7 -1 -4 4
6 10 -12 36 -43 60 -13 10 -21 7 -45 -19z m1 -53 c1 -8 -1 -17 -5 -19 -4 -3
-7 6 -7 19 0 25 8 25 12 0z m-160 -231 c1 -9 0 -13 -4 -10 -3 4 -7 14 -8 22
-1 9 0 13 4 10 3 -4 7 -14 8 -22z m-26 12 c0 -2 -8 -10 -17 -17 -16 -13 -17
-12 -4 4 13 16 21 21 21 13z m24 -44 c3 -5 -1 -9 -9 -9 -8 0 -12 4 -9 9 3 4 7
8 9 8 2 0 6 -4 9 -8z m-64 -38 c0 -8 -19 -13 -24 -6 -3 5 1 9 9 9 8 0 15 -2
15 -3z"/>
</g>
</svg>
