<svg width="142" height="140" viewBox="0 0 142 140" fill="none" xmlns="http://www.w3.org/2000/svg">
<rect x="51.4685" y="61.0361" width="26.7778" height="26.7778" transform="rotate(-44.8705 51.4685 61.0361)" fill="#2E95FF"/>
<rect x="59.0595" y="53.4795" width="26.7778" height="26.7778" transform="rotate(-44.8705 59.0595 53.4795)" fill="#FFC201"/>
<rect x="51.5027" y="45.8887" width="26.7778" height="26.7778" transform="rotate(-44.8705 51.5027 45.8887)" fill="#027EFE" fill-opacity="0.75"/>
<rect x="43.9117" y="53.4453" width="26.7778" height="26.7778" transform="rotate(-44.8705 43.9117 53.4453)" fill="#007DFF" fill-opacity="0.75"/>
<rect x="59.0595" y="53.4795" width="16.0667" height="16.0667" transform="rotate(-44.8705 59.0595 53.4795)" fill="#014FC9"/>
<path d="M10.8801 103.056V90.8997H13.205V103.056H10.8801ZM14.7015 103.056V94.2376H16.5615L17.0264 95.1842C17.3032 94.9738 17.497 94.8354 17.6077 94.769C17.7295 94.6915 17.9177 94.5863 18.1723 94.4535C18.4269 94.3096 18.6816 94.2155 18.9362 94.1712C19.2019 94.1158 19.4953 94.0881 19.8163 94.0881C21.5766 94.0881 22.4568 95.1177 22.4568 97.177V103.056H20.1319V97.1437C20.1319 96.723 20.0433 96.4186 19.8662 96.2304C19.7001 96.0422 19.4621 95.9481 19.1521 95.9481C18.8421 95.9481 18.5653 95.9813 18.3218 96.0477C18.0893 96.1031 17.8734 96.1861 17.6741 96.2968C17.4859 96.3965 17.27 96.5348 17.0264 96.712V103.056H14.7015ZM23.3337 95.9979V94.7026L24.7618 94.221L25.1438 91.7632H27.0868V94.221H29.0629V95.9979H27.0868V99.5351C27.0868 99.9447 27.12 100.277 27.1864 100.531C27.2528 100.775 27.3359 100.947 27.4355 101.046C27.5351 101.135 27.668 101.212 27.834 101.279C28.4983 101.511 28.8692 101.628 28.9467 101.628V103.056H26.9207C26.2343 103.056 25.7029 102.812 25.3265 102.325C24.9501 101.827 24.7618 101.019 24.7618 99.9004V95.9979H23.3337ZM30.0238 98.6051C30.0238 97.8412 30.0681 97.2046 30.1566 96.6954C30.2563 96.175 30.3947 95.7488 30.5718 95.4167C30.7489 95.0735 30.998 94.8133 31.3191 94.6362C31.6401 94.459 31.9944 94.3372 32.3819 94.2708C32.7805 94.2044 33.2787 94.1712 33.8765 94.1712C34.275 94.1712 34.6127 94.1822 34.8895 94.2044C35.1663 94.2155 35.443 94.2487 35.7198 94.304C36.0077 94.3483 36.2401 94.4203 36.4173 94.5199C36.5944 94.6085 36.766 94.7358 36.9321 94.9019C37.0982 95.0569 37.2255 95.2506 37.314 95.4831C37.4137 95.7045 37.4856 95.9758 37.5299 96.2968C37.5853 96.6068 37.613 96.9666 37.613 97.3762C37.613 98.1512 37.4081 98.7158 36.9985 99.0701C36.5889 99.4244 35.9744 99.6015 35.1552 99.6015H32.3487C32.3487 100.111 32.4206 100.493 32.5646 100.747C32.7196 100.991 32.9078 101.14 33.1292 101.196C33.3617 101.251 33.7215 101.279 34.2086 101.279C35.5704 101.279 36.6498 101.218 37.4469 101.096V102.674C36.6166 102.984 35.1109 103.139 32.9299 103.139C32.3653 103.139 31.8948 103.056 31.5184 102.89C31.153 102.724 30.8596 102.452 30.6382 102.076C30.4168 101.699 30.2563 101.234 30.1566 100.681C30.0681 100.127 30.0238 99.4354 30.0238 98.6051ZM32.3487 97.9242H34.5574C35.0445 97.9242 35.288 97.7028 35.288 97.26C35.288 96.7064 35.2105 96.3522 35.0556 96.1972C34.9116 96.0311 34.5629 95.9481 34.0093 95.9481C33.6551 95.9481 33.3894 95.9647 33.2122 95.9979C33.0462 96.02 32.8801 96.0975 32.714 96.2304C32.559 96.3522 32.4539 96.5459 32.3985 96.8116C32.3542 97.0773 32.3376 97.4482 32.3487 97.9242ZM38.8815 99.917V90.0528H41.2064V99.5517C41.2064 100.138 41.2673 100.548 41.3891 100.781C41.5109 101.013 41.7046 101.179 41.9703 101.279C42.6346 101.511 43.0055 101.628 43.083 101.628V103.056H41.1566C40.7913 103.056 40.4702 103 40.1935 102.89C39.9167 102.779 39.6786 102.607 39.4794 102.375C39.2801 102.131 39.1306 101.805 39.031 101.395C38.9314 100.985 38.8815 100.493 38.8815 99.917ZM44.0873 99.917V90.0528H46.4122V99.5517C46.4122 100.138 46.4731 100.548 46.5949 100.781C46.7167 101.013 46.9104 101.179 47.1761 101.279C47.8404 101.511 48.2112 101.628 48.2887 101.628V103.056H46.3624C45.997 103.056 45.676 103 45.3992 102.89C45.1224 102.779 44.8844 102.607 44.6851 102.375C44.4858 102.131 44.3364 101.805 44.2367 101.395C44.1371 100.985 44.0873 100.493 44.0873 99.917ZM49.1602 92.9257V91.4643C49.1602 91.1765 49.293 91.0325 49.5587 91.0325H51.3024C51.546 91.0325 51.6678 91.1765 51.6678 91.4643V92.9257C51.6678 93.0475 51.6346 93.1416 51.5681 93.208C51.5128 93.2744 51.4242 93.3076 51.3024 93.3076H49.5587C49.4813 93.3076 49.4093 93.2966 49.3429 93.2744C49.2875 93.2412 49.2432 93.1969 49.21 93.1416C49.1768 93.0751 49.1602 93.0032 49.1602 92.9257ZM49.2432 103.056V94.2376H51.5681V103.056H49.2432ZM58.3894 96.9445C58.3894 96.1252 58.4226 95.4111 58.489 94.8022C58.5665 94.1933 58.6994 93.6287 58.8876 93.1084C59.0758 92.577 59.3249 92.1452 59.6349 91.8131C59.9449 91.4809 60.3379 91.2263 60.8139 91.0492C61.3011 90.8609 61.8712 90.7668 62.5244 90.7668C64.1076 90.7668 65.5191 90.9495 66.7591 91.3149V93.1416C66.7591 93.1416 66.7314 93.1416 66.676 93.1416C66.6318 93.1305 66.5653 93.1194 66.4768 93.1084C66.3882 93.0973 66.283 93.0862 66.1612 93.0751C66.0395 93.0641 65.9011 93.053 65.7461 93.0419C65.5911 93.0309 65.4306 93.0198 65.2645 93.0087C65.0984 92.9976 64.9213 92.9866 64.7331 92.9755C64.5559 92.9644 64.3733 92.9534 64.1851 92.9423C64.0079 92.9312 63.8197 92.9257 63.6204 92.9257C63.4212 92.9146 63.2385 92.9091 63.0724 92.9091C62.7624 92.9091 62.5023 92.9257 62.2919 92.9589C62.0926 92.981 61.8934 93.0419 61.6941 93.1416C61.5059 93.2412 61.3564 93.3851 61.2457 93.5733C61.135 93.7505 61.0354 93.9885 60.9468 94.2874C60.8582 94.5863 60.7973 94.9572 60.7641 95.4001C60.7309 95.8318 60.7143 96.3577 60.7143 96.9777C60.7143 98.4169 60.8748 99.452 61.1959 100.083C61.528 100.703 62.1535 101.013 63.0724 101.013C63.5928 101.013 64.1574 101.002 64.7663 100.98C65.3863 100.958 65.8734 100.936 66.2277 100.913L66.7591 100.88V102.69C65.6741 103.022 64.2626 103.177 62.5244 103.155C61.7716 103.144 61.1239 103 60.5815 102.724C60.039 102.436 59.6072 102.021 59.2861 101.478C58.9762 100.924 58.7492 100.282 58.6053 99.5517C58.4614 98.8099 58.3894 97.9409 58.3894 96.9445ZM67.8101 98.7712C67.8101 97.8634 67.8765 97.1161 68.0094 96.5293C68.1422 95.9425 68.3747 95.472 68.7068 95.1177C69.039 94.7635 69.4486 94.5144 69.9357 94.3705C70.4339 94.2265 71.065 94.1546 71.8289 94.1546C73.3456 94.1546 74.3918 94.4867 74.9675 95.151C75.5543 95.8152 75.8476 97.022 75.8476 98.7712C75.8476 100.421 75.5598 101.561 74.9841 102.192C74.4195 102.823 73.3677 103.139 71.8289 103.139C71.22 103.139 70.6886 103.089 70.2346 102.989C69.7918 102.879 69.4099 102.718 69.0888 102.508C68.7788 102.297 68.5297 102.021 68.3415 101.677C68.1533 101.323 68.0149 100.913 67.9263 100.448C67.8488 99.9724 67.8101 99.4133 67.8101 98.7712ZM70.135 98.7712C70.135 99.3358 70.1627 99.7842 70.218 100.116C70.2734 100.448 70.373 100.703 70.517 100.88C70.6719 101.046 70.8435 101.151 71.0318 101.196C71.22 101.24 71.4857 101.262 71.8289 101.262C72.1278 101.262 72.3547 101.251 72.5097 101.229C72.6758 101.207 72.8308 101.151 72.9747 101.063C73.1297 100.974 73.2404 100.836 73.3068 100.648C73.3843 100.46 73.4397 100.221 73.4729 99.9336C73.5061 99.6347 73.5227 99.2472 73.5227 98.7712C73.5227 98.2619 73.5061 97.8523 73.4729 97.5423C73.4508 97.2212 73.4065 96.9555 73.3401 96.7452C73.2736 96.5238 73.1685 96.3688 73.0245 96.2802C72.8806 96.1806 72.7201 96.1141 72.5429 96.0809C72.3658 96.0366 72.1278 96.0145 71.8289 96.0145C71.5853 96.0145 71.386 96.0256 71.231 96.0477C71.076 96.0699 70.9266 96.1197 70.7827 96.1972C70.6387 96.2636 70.528 96.3577 70.4505 96.4795C70.3841 96.5902 70.3232 96.7507 70.2679 96.9611C70.2125 97.1714 70.1738 97.4205 70.1516 97.7084C70.1405 97.9962 70.135 98.3505 70.135 98.7712ZM77.2355 103.056V94.2376H79.0954L79.5604 95.1842C79.8371 94.9738 80.0309 94.8354 80.1416 94.769C80.2634 94.6915 80.4516 94.5863 80.7062 94.4535C80.9608 94.3096 81.2155 94.2155 81.4701 94.1712C81.7358 94.1158 82.0292 94.0881 82.3503 94.0881C84.1106 94.0881 84.9907 95.1177 84.9907 97.177V103.056H82.6658V97.1437C82.6658 96.723 82.5772 96.4186 82.4001 96.2304C82.234 96.0422 81.996 95.9481 81.686 95.9481C81.376 95.9481 81.0992 95.9813 80.8557 96.0477C80.6232 96.1031 80.4073 96.1861 80.208 96.2968C80.0198 96.3965 79.8039 96.5348 79.5604 96.712V103.056H77.2355ZM86.2329 98.6383C86.2329 97.7526 86.2994 97.0109 86.4322 96.4131C86.5761 95.8042 86.781 95.3447 87.0467 95.0347C87.3234 94.7137 87.6279 94.4867 87.96 94.3538C88.2921 94.221 88.6852 94.1546 89.1391 94.1546C90.7665 94.1546 92.1172 94.3262 93.1911 94.6694V96.1141C92.1393 96.0477 91.1208 96.0145 90.1355 96.0145C89.8698 96.0145 89.6705 96.0256 89.5376 96.0477C89.4159 96.0699 89.2775 96.1252 89.1225 96.2138C88.9675 96.3023 88.8568 96.4407 88.7903 96.6289C88.7239 96.8171 88.6686 97.0773 88.6243 97.4094C88.58 97.7416 88.5579 98.1678 88.5579 98.6881C88.5579 99.441 88.6077 100 88.7073 100.365C88.818 100.731 88.973 100.974 89.1723 101.096C89.3826 101.207 89.7037 101.262 90.1355 101.262C90.5894 101.262 91.082 101.251 91.6135 101.229C92.1449 101.207 92.56 101.179 92.8589 101.146L93.3073 101.113V102.574C93.0638 102.696 92.8147 102.801 92.56 102.89C92.3054 102.967 91.9954 103.022 91.6301 103.056C91.2758 103.089 91.0212 103.111 90.8662 103.122C90.7222 103.133 90.4122 103.139 89.9362 103.139C89.4601 103.139 89.1944 103.139 89.1391 103.139C87.877 103.139 87.0356 102.563 86.6149 101.412C86.3603 100.714 86.2329 99.7897 86.2329 98.6383ZM94.4389 92.9257V91.4643C94.4389 91.1765 94.5718 91.0325 94.8375 91.0325H96.5811C96.8247 91.0325 96.9465 91.1765 96.9465 91.4643V92.9257C96.9465 93.0475 96.9133 93.1416 96.8468 93.208C96.7915 93.2744 96.7029 93.3076 96.5811 93.3076H94.8375C94.76 93.3076 94.688 93.2966 94.6216 93.2744C94.5662 93.2412 94.5219 93.1969 94.4887 93.1416C94.4555 93.0751 94.4389 93.0032 94.4389 92.9257ZM94.5219 103.056V94.2376H96.8468V103.056H94.5219ZM98.2013 98.6051C98.2013 97.8412 98.2456 97.2046 98.3342 96.6954C98.4338 96.175 98.5722 95.7488 98.7493 95.4167C98.9265 95.0735 99.1756 94.8133 99.4966 94.6362C99.8177 94.459 100.172 94.3372 100.559 94.2708C100.958 94.2044 101.456 94.1712 102.054 94.1712C102.453 94.1712 102.79 94.1822 103.067 94.2044C103.344 94.2155 103.621 94.2487 103.897 94.304C104.185 94.3483 104.418 94.4203 104.595 94.5199C104.772 94.6085 104.944 94.7358 105.11 94.9019C105.276 95.0569 105.403 95.2506 105.492 95.4831C105.591 95.7045 105.663 95.9758 105.707 96.2968C105.763 96.6068 105.79 96.9666 105.79 97.3762C105.79 98.1512 105.586 98.7158 105.176 99.0701C104.766 99.4244 104.152 99.6015 103.333 99.6015H100.526C100.526 100.111 100.598 100.493 100.742 100.747C100.897 100.991 101.085 101.14 101.307 101.196C101.539 101.251 101.899 101.279 102.386 101.279C103.748 101.279 104.827 101.218 105.624 101.096V102.674C104.794 102.984 103.288 103.139 101.107 103.139C100.543 103.139 100.072 103.056 99.6959 102.89C99.3306 102.724 99.0372 102.452 98.8158 102.076C98.5943 101.699 98.4338 101.234 98.3342 100.681C98.2456 100.127 98.2013 99.4354 98.2013 98.6051ZM100.526 97.9242H102.735C103.222 97.9242 103.466 97.7028 103.466 97.26C103.466 96.7064 103.388 96.3522 103.233 96.1972C103.089 96.0311 102.74 95.9481 102.187 95.9481C101.833 95.9481 101.567 95.9647 101.39 95.9979C101.224 96.02 101.058 96.0975 100.892 96.2304C100.737 96.3522 100.631 96.5459 100.576 96.8116C100.532 97.0773 100.515 97.4482 100.526 97.9242ZM107.059 103.056V94.2376H109.019L109.384 95.3502C110.214 94.5531 111.056 94.1546 111.908 94.1546C112.384 94.1546 112.711 94.1878 112.888 94.2542V96.4961C112.578 96.4629 112.152 96.4463 111.609 96.4463C111.089 96.4463 110.652 96.5182 110.297 96.6622C109.954 96.795 109.65 97.0496 109.384 97.4261V103.056H107.059ZM113.818 101.362C113.818 100.985 113.901 100.659 114.067 100.382C114.244 100.094 114.504 99.8949 114.847 99.7842C114.759 99.7288 114.676 99.6624 114.598 99.5849C114.521 99.5074 114.449 99.4244 114.382 99.3358C114.327 99.2472 114.272 99.1531 114.216 99.0535C114.172 98.9428 114.128 98.8321 114.084 98.7214C114.05 98.6107 114.017 98.4999 113.984 98.3892C113.962 98.2675 113.94 98.1512 113.917 98.0405C113.906 97.9187 113.895 97.8025 113.884 97.6918C113.884 97.57 113.884 97.4537 113.884 97.343C113.884 95.2506 114.903 94.2044 116.94 94.2044H122.304V95.5993L121.324 95.8983C121.324 95.8983 121.341 95.9425 121.374 96.0311C121.407 96.1086 121.424 96.1584 121.424 96.1806C121.435 96.1916 121.451 96.2359 121.473 96.3134C121.507 96.3909 121.529 96.4518 121.54 96.4961C121.551 96.5404 121.562 96.6068 121.573 96.6954C121.595 96.7839 121.606 96.8725 121.606 96.9611C121.617 97.0386 121.628 97.1382 121.639 97.26C121.651 97.3707 121.656 97.4925 121.656 97.6253C121.656 97.7914 121.645 97.9575 121.623 98.1235C121.601 98.2785 121.568 98.4446 121.523 98.6217C121.479 98.7989 121.418 98.9649 121.341 99.1199C121.274 99.2749 121.186 99.4299 121.075 99.5849C120.964 99.7288 120.831 99.8617 120.676 99.9835C120.521 100.105 120.344 100.21 120.145 100.299C119.957 100.388 119.73 100.46 119.464 100.515C119.209 100.559 118.933 100.581 118.634 100.581H116.591C116.469 100.581 116.37 100.587 116.292 100.598C116.215 100.609 116.132 100.648 116.043 100.714C115.966 100.77 115.927 100.853 115.927 100.963C115.927 101.14 115.982 101.262 116.093 101.329C116.215 101.384 116.381 101.412 116.591 101.412H119.298C120.117 101.412 120.754 101.633 121.208 102.076C121.673 102.508 121.905 103.161 121.905 104.035V104.982C121.905 105.148 121.894 105.303 121.872 105.447C121.85 105.602 121.817 105.757 121.772 105.912C121.739 106.067 121.684 106.211 121.606 106.344C121.529 106.488 121.44 106.621 121.341 106.742C121.241 106.864 121.119 106.969 120.975 107.058C120.831 107.157 120.671 107.241 120.494 107.307C120.316 107.384 120.112 107.44 119.879 107.473C119.658 107.517 119.414 107.539 119.148 107.539H116.658C116.115 107.539 115.639 107.451 115.229 107.274C114.831 107.097 114.51 106.809 114.266 106.41C114.023 106.023 113.901 105.547 113.901 104.982V103.869L114.681 103.056C114.56 102.989 114.449 102.906 114.349 102.807C114.25 102.696 114.155 102.569 114.067 102.425C113.989 102.281 113.929 102.12 113.884 101.943C113.84 101.755 113.818 101.561 113.818 101.362ZM116.242 104.7C116.242 104.91 116.264 105.082 116.309 105.215C116.364 105.347 116.442 105.447 116.541 105.513C116.652 105.58 116.757 105.624 116.857 105.646C116.968 105.668 117.111 105.679 117.289 105.679H118.65C118.861 105.679 119.027 105.652 119.148 105.596C119.281 105.552 119.375 105.486 119.431 105.397C119.497 105.309 119.542 105.215 119.564 105.115C119.586 105.015 119.597 104.893 119.597 104.75V104.102C119.597 104.035 119.591 103.975 119.58 103.919C119.569 103.864 119.558 103.808 119.547 103.753C119.536 103.709 119.514 103.665 119.481 103.62C119.458 103.587 119.431 103.548 119.398 103.504C119.364 103.471 119.326 103.443 119.281 103.421C119.237 103.399 119.187 103.377 119.132 103.355C119.077 103.332 119.016 103.316 118.949 103.305C118.883 103.294 118.811 103.288 118.733 103.288H116.94L116.242 103.238V104.7ZM116.209 97.343C116.209 98.2508 116.563 98.7048 117.272 98.7048H118.202C118.966 98.7048 119.342 98.2508 119.331 97.343C119.32 96.878 119.226 96.5514 119.049 96.3632C118.883 96.164 118.595 96.0643 118.185 96.0643H117.305C117.073 96.0643 116.879 96.1031 116.724 96.1806C116.58 96.247 116.469 96.3466 116.392 96.4795C116.325 96.6013 116.276 96.7286 116.242 96.8614C116.22 96.9943 116.209 97.1548 116.209 97.343ZM123.144 98.6051C123.144 97.8412 123.188 97.2046 123.276 96.6954C123.376 96.175 123.514 95.7488 123.692 95.4167C123.869 95.0735 124.118 94.8133 124.439 94.6362C124.76 94.459 125.114 94.3372 125.502 94.2708C125.9 94.2044 126.398 94.1712 126.996 94.1712C127.395 94.1712 127.732 94.1822 128.009 94.2044C128.286 94.2155 128.563 94.2487 128.84 94.304C129.127 94.3483 129.36 94.4203 129.537 94.5199C129.714 94.6085 129.886 94.7358 130.052 94.9019C130.218 95.0569 130.345 95.2506 130.434 95.4831C130.533 95.7045 130.605 95.9758 130.65 96.2968C130.705 96.6068 130.733 96.9666 130.733 97.3762C130.733 98.1512 130.528 98.7158 130.118 99.0701C129.709 99.4244 129.094 99.6015 128.275 99.6015H125.468C125.468 100.111 125.54 100.493 125.684 100.747C125.839 100.991 126.028 101.14 126.249 101.196C126.481 101.251 126.841 101.279 127.328 101.279C128.69 101.279 129.77 101.218 130.567 101.096V102.674C129.736 102.984 128.231 103.139 126.05 103.139C125.485 103.139 125.015 103.056 124.638 102.89C124.273 102.724 123.979 102.452 123.758 102.076C123.537 101.699 123.376 101.234 123.276 100.681C123.188 100.127 123.144 99.4354 123.144 98.6051ZM125.468 97.9242H127.677C128.164 97.9242 128.408 97.7028 128.408 97.26C128.408 96.7064 128.33 96.3522 128.175 96.1972C128.031 96.0311 127.683 95.9481 127.129 95.9481C126.775 95.9481 126.509 95.9647 126.332 95.9979C126.166 96.02 126 96.0975 125.834 96.2304C125.679 96.3522 125.574 96.5459 125.518 96.8116C125.474 97.0773 125.457 97.4482 125.468 97.9242Z" fill="#027EFE"/>
</svg>
