<?xml version="1.0" standalone="no"?>
<!DOCTYPE svg PUBLIC "-//W3C//DTD SVG 20010904//EN"
 "http://www.w3.org/TR/2001/REC-SVG-20010904/DTD/svg10.dtd">
<svg version="1.0" xmlns="http://www.w3.org/2000/svg"
 width="816.000000pt" height="816.000000pt" viewBox="0 0 816.000000 816.000000"
 preserveAspectRatio="xMidYMid meet">
<metadata>
Created by potrace 1.14, written by Peter Selinger 2001-2017
</metadata>
<g transform="translate(0.000000,816.000000) scale(0.100000,-0.100000)"
fill="#000000" stroke="none">
<path d="M3818 8155 c-1 -1 -43 -6 -93 -10 -49 -3 -99 -8 -110 -10 -11 -2 -47
-7 -80 -10 -32 -4 -62 -8 -65 -10 -3 -1 -25 -6 -50 -9 -25 -3 -56 -8 -70 -11
-14 -4 -36 -8 -50 -10 -103 -15 -403 -106 -520 -157 -25 -10 -54 -23 -65 -27
-11 -5 -49 -23 -85 -42 -339 -171 -542 -332 -799 -634 -9 -11 -32 -40 -51 -65
-19 -25 -38 -46 -42 -48 -5 -2 -8 -8 -8 -14 0 -6 -19 -38 -43 -72 -24 -34 -46
-68 -50 -76 -4 -8 -23 -42 -43 -75 -43 -74 -127 -246 -154 -317 -11 -29 -25
-62 -30 -73 -27 -56 -123 -375 -113 -375 3 0 0 -7 -7 -15 -7 -9 -10 -18 -7
-21 3 -3 2 -17 -4 -31 -5 -13 -11 -38 -14 -56 -3 -18 -8 -39 -10 -47 -2 -8 -7
-30 -10 -47 -3 -18 -7 -45 -10 -60 -11 -72 -15 -93 -25 -168 -5 -44 -12 -108
-15 -143 -21 -273 -127 -466 -350 -634 -111 -84 -184 -169 -243 -280 -34 -64
-70 -167 -75 -213 -2 -17 -6 -36 -10 -42 -8 -13 -4 -1340 5 -1368 3 -11 11
-40 17 -65 7 -25 16 -54 21 -65 9 -18 30 -73 33 -85 0 -3 5 -9 9 -15 5 -5 26
-37 47 -70 103 -159 310 -304 476 -332 17 -3 50 -9 75 -13 38 -7 225 -7 225 0
0 1 14 4 30 6 126 19 275 95 381 195 136 127 234 319 258 509 7 48 8 1248 1
1290 -27 191 -119 367 -252 485 -214 188 -297 304 -355 495 -22 73 -33 274
-19 350 5 25 12 68 15 95 4 28 9 57 11 65 2 8 7 29 10 45 2 17 7 41 10 55 3
14 8 36 11 50 3 14 14 59 25 100 11 41 22 82 24 90 15 73 110 322 173 450 69
142 208 367 234 378 5 2 8 8 8 14 0 25 220 257 320 338 30 24 60 49 65 55 18
20 229 155 242 155 7 0 13 4 13 8 0 4 25 19 55 32 30 13 55 29 55 34 0 5 3 7
6 3 3 -3 21 3 40 14 19 10 38 19 43 19 5 0 30 10 57 22 27 12 54 23 59 25 6 1
54 18 108 36 53 19 97 33 97 31 0 -2 11 1 25 6 14 5 36 12 48 14 32 7 80 17
97 21 8 2 15 4 15 5 0 2 22 6 70 14 22 4 65 11 95 16 30 5 82 12 115 15 33 4
71 8 85 10 122 21 628 21 780 0 14 -2 48 -6 75 -9 77 -10 107 -14 145 -21 19
-3 49 -8 65 -11 17 -3 50 -10 75 -15 25 -6 52 -12 60 -14 208 -44 501 -160
684 -270 32 -19 62 -35 66 -35 5 0 10 -3 12 -7 2 -5 28 -25 58 -45 30 -21 67
-48 82 -60 15 -13 44 -36 65 -53 66 -52 227 -220 295 -306 136 -175 234 -347
335 -589 8 -19 19 -43 24 -52 5 -10 9 -26 9 -36 0 -10 4 -22 8 -27 8 -9 50
-137 57 -174 2 -9 4 -17 5 -18 2 -2 3 -6 4 -10 2 -5 7 -26 14 -48 6 -22 13
-51 16 -65 3 -14 7 -34 10 -45 19 -82 27 -120 31 -148 2 -17 6 -41 9 -52 14
-69 20 -134 20 -235 1 -166 -10 -219 -73 -350 -56 -116 -108 -186 -204 -272
-128 -116 -185 -177 -231 -248 -25 -39 -46 -75 -46 -81 0 -5 -7 -20 -15 -32
-8 -13 -26 -65 -39 -117 l-25 -95 0 -660 c1 -649 1 -661 23 -745 45 -175 127
-304 273 -431 36 -32 153 -101 153 -91 0 4 4 2 8 -4 7 -11 146 -62 172 -62 21
-1 43 -6 56 -15 12 -7 11 -103 0 -194 -4 -26 -9 -66 -12 -88 -2 -22 -7 -51 -9
-65 -3 -14 -7 -34 -9 -45 -2 -11 -10 -40 -17 -65 -7 -25 -13 -49 -14 -55 -1
-5 -4 -17 -7 -25 -3 -8 -20 -55 -38 -105 -42 -116 -151 -321 -190 -355 -3 -3
-18 -23 -35 -45 -52 -70 -194 -206 -268 -255 -20 -14 -37 -28 -37 -32 0 -5 -5
-8 -11 -8 -6 0 -23 -8 -37 -19 -155 -109 -518 -236 -762 -265 -25 -3 -55 -8
-67 -10 -70 -15 -313 -29 -314 -19 -1 5 -3 17 -4 29 -12 116 -73 262 -145 348
-185 222 -475 298 -740 194 -95 -38 -132 -62 -215 -143 -88 -86 -141 -173
-171 -282 -22 -77 -29 -236 -14 -307 6 -30 11 -59 12 -63 0 -5 4 -14 10 -20 6
-7 8 -13 4 -13 -9 0 41 -96 77 -150 34 -49 132 -150 146 -150 5 0 14 -6 20
-14 10 -12 53 -34 146 -77 89 -40 295 -46 405 -11 36 12 68 20 71 19 4 -1 15
5 25 13 11 9 36 25 57 35 82 42 217 196 256 292 7 18 16 33 20 34 3 0 35 2 71
4 214 12 355 29 515 60 137 27 306 75 395 112 8 3 17 7 20 8 3 0 32 13 65 28
33 15 62 26 65 25 3 -2 19 7 37 20 17 12 34 22 38 22 3 0 31 16 61 35 30 19
57 35 60 35 5 0 65 41 74 50 3 3 21 17 40 30 126 88 306 283 405 440 60 94
169 325 181 383 1 4 2 8 4 10 2 3 3 6 39 150 17 65 33 135 36 155 11 79 16
130 20 194 2 37 6 72 9 77 4 5 2 12 -4 16 -6 4 -7 12 -1 22 4 9 6 24 4 34 -4
13 2 20 23 24 168 38 333 143 441 282 47 61 113 172 118 201 2 9 4 18 5 20 2
1 3 5 5 10 1 4 5 15 8 25 31 80 32 112 32 812 0 624 -1 684 -17 723 -10 23
-18 43 -17 45 3 11 -20 74 -48 127 -65 123 -148 219 -261 302 -67 50 -144 127
-181 183 -14 22 -28 42 -31 45 -10 10 -48 87 -68 140 -34 88 -45 142 -58 285
-8 85 -11 118 -18 160 -4 22 -11 72 -17 110 -13 79 -12 73 -34 175 -44 199
-109 413 -170 555 -98 230 -186 388 -309 560 -28 39 -53 72 -56 75 -3 3 -23
28 -44 55 -51 64 -269 282 -321 320 -22 17 -45 35 -51 41 -7 6 -45 33 -85 60
-41 27 -76 51 -79 54 -46 46 -388 209 -555 265 -179 59 -202 66 -228 70 -12 2
-74 15 -137 29 -63 13 -137 27 -165 31 -27 4 -61 8 -75 10 -14 2 -50 7 -80 10
-30 3 -73 9 -95 11 -46 6 -631 14 -637 9z"/>
<path d="M3403 3299 c-30 -19 -47 -51 -57 -112 -3 -15 -7 -35 -10 -45 -3 -9
-7 -28 -10 -42 -24 -122 -98 -280 -163 -345 -37 -37 -133 -105 -157 -110 -6
-1 -28 -9 -48 -19 -21 -9 -43 -16 -51 -16 -7 0 -18 -5 -25 -12 -7 -7 -12 -9
-12 -5 0 3 -18 0 -40 -8 -22 -8 -44 -14 -48 -14 -4 0 -35 -5 -70 -12 -51 -10
-69 -20 -93 -46 -41 -47 -41 -108 0 -150 27 -29 35 -32 172 -58 82 -16 235
-76 295 -117 95 -64 183 -194 216 -323 7 -27 15 -52 18 -55 3 -3 6 -9 7 -15 3
-24 12 -72 17 -95 3 -14 8 -35 10 -47 12 -58 64 -96 122 -90 79 10 92 35 149
289 2 9 9 26 15 37 6 12 8 21 5 21 -3 0 13 37 36 82 63 125 156 208 292 260
54 21 183 57 227 63 78 12 123 39 137 82 27 79 -17 147 -102 158 -11 2 -40 8
-65 15 -25 7 -56 14 -69 16 -45 9 -146 47 -206 78 -51 26 -144 107 -180 157
-14 20 -52 100 -60 129 -4 14 -11 30 -15 35 -8 11 -32 107 -29 115 1 3 -2 14
-8 25 -6 11 -14 38 -17 59 -10 63 -18 86 -28 86 -5 0 -7 4 -4 9 7 11 -41 32
-84 37 -23 2 -46 -4 -67 -17z"/>
<path d="M4979 2405 c-32 -18 -46 -47 -68 -140 -12 -49 -26 -94 -32 -102 -7
-7 -8 -13 -5 -13 9 0 -9 -22 -54 -69 -37 -39 -98 -64 -223 -96 -57 -15 -72
-23 -88 -49 -28 -45 -25 -95 9 -134 15 -18 36 -34 48 -36 68 -13 164 -42 199
-61 45 -23 85 -59 85 -75 0 -5 4 -10 8 -10 8 0 44 -89 48 -119 2 -8 6 -26 10
-40 4 -14 6 -30 6 -34 -4 -17 31 -69 58 -85 34 -21 96 -18 129 7 20 15 38 61
56 145 36 164 127 235 344 270 25 4 71 58 72 85 4 91 -25 121 -137 146 -92 20
-150 45 -191 83 -33 29 -69 94 -77 136 -2 14 -7 30 -10 35 -3 5 -8 26 -12 47
-9 55 -30 91 -63 109 -32 16 -81 16 -112 0z"/>
</g>
</svg>
