<svg width="131" height="31" viewBox="0 0 131 31" fill="none" xmlns="http://www.w3.org/2000/svg"><path d="M49.0664 17.9283H49.0272L46.5619 7.97656H43.5914L41.0748 17.8077H41.0341L38.7573 7.98259H35.5908L39.4102 22.4156H42.6234L45.0269 12.5921H45.0676L47.5133 22.4156H50.6662L54.5398 7.98259H51.4277L49.0664 17.9283ZM64.2187 12.865C63.9149 12.478 63.5144 12.1779 63.0576 11.995C62.4546 11.7675 61.8125 11.6615 61.1683 11.6828C60.5909 11.6917 60.0233 11.8336 59.5097 12.0975C58.9237 12.3912 58.4378 12.8518 58.1134 13.4214H58.0531V7.98259H55.1882V22.4156H58.0531V16.9377C58.0531 15.8731 58.228 15.1081 58.5778 14.6427C58.9277 14.1773 59.4936 13.9451 60.2757 13.9461C60.9617 13.9461 61.4412 14.1587 61.7096 14.5839C61.978 15.0091 62.1137 15.6515 62.1137 16.514V22.4156H64.9786V15.9877C64.9831 15.3938 64.9254 14.801 64.8067 14.219C64.7135 13.7297 64.5127 13.2671 64.2187 12.865V12.865ZM76.0401 20.089V14.6608C76.0401 14.0265 75.8989 13.5174 75.6164 13.1334C75.333 12.7467 74.9585 12.436 74.5263 12.2287C74.0601 12.0076 73.5619 11.8616 73.0501 11.7959C72.521 11.7225 71.9875 11.6852 71.4533 11.6843C70.8726 11.6837 70.2932 11.7408 69.7238 11.8547C69.1793 11.9581 68.6563 12.1529 68.1768 12.4307C67.7223 12.6956 67.3353 13.062 67.0459 13.5013C66.7303 14.0055 66.5554 14.5849 66.5392 15.1795H69.4041C69.4584 14.6141 69.6484 14.2085 69.9711 13.9732C70.2938 13.738 70.7461 13.6053 71.3131 13.6053C71.5527 13.6042 71.7921 13.6209 72.0293 13.6551C72.2363 13.6826 72.4358 13.7513 72.6158 13.8571C72.7863 13.96 72.9259 14.1069 73.0199 14.2824C73.1312 14.5116 73.183 14.7652 73.1707 15.0197C73.1855 15.1454 73.1693 15.2728 73.1235 15.3907C73.0778 15.5087 73.0039 15.6138 72.9084 15.6967C72.6804 15.8699 72.4166 15.9899 72.1363 16.048C71.7711 16.1369 71.3996 16.1979 71.0251 16.2305C70.6059 16.2717 70.1817 16.3255 69.7525 16.3918C69.3201 16.4599 68.8917 16.5516 68.4693 16.6662C68.0648 16.7706 67.6817 16.9446 67.3369 17.1804C66.9989 17.4196 66.7216 17.7346 66.5272 18.1002C66.3033 18.5553 66.196 19.059 66.2151 19.5658C66.2026 20.0451 66.2958 20.5213 66.488 20.9606C66.6589 21.3394 66.9173 21.6722 67.2419 21.9316C67.5774 22.1937 67.9619 22.3859 68.3728 22.4971C68.827 22.6221 69.2964 22.6835 69.7675 22.6795C70.4108 22.6796 71.0505 22.5846 71.6659 22.3976C72.2812 22.2107 72.8382 21.8691 73.2838 21.4054C73.2965 21.5786 73.3202 21.7508 73.3547 21.9211C73.3878 22.0886 73.4316 22.2538 73.4859 22.4156H76.396C76.2352 22.1157 76.1386 21.7855 76.1125 21.4461C76.06 20.9957 76.0359 20.5425 76.0401 20.089V20.089ZM73.1753 18.3701C73.1721 18.5866 73.1555 18.8026 73.1255 19.017C73.0877 19.2986 72.9949 19.5702 72.8526 19.8161C72.6855 20.0973 72.4487 20.3305 72.165 20.4931C71.8564 20.6821 71.4186 20.7766 70.8517 20.7766C70.6281 20.7769 70.4049 20.7562 70.1852 20.7148C69.9849 20.6807 69.7929 20.6085 69.6198 20.5022C69.4572 20.401 69.3245 20.2584 69.2353 20.089C69.1353 19.8884 69.0866 19.6662 69.0935 19.4422C69.0853 19.2113 69.134 18.9819 69.2353 18.7742C69.3261 18.6035 69.4538 18.4551 69.6092 18.34C69.775 18.2197 69.9594 18.1275 70.155 18.067C70.3635 17.9997 70.576 17.9458 70.7914 17.9057C71.0205 17.8665 71.2437 17.8303 71.4774 17.8047C71.7111 17.779 71.9298 17.7428 72.1348 17.7036C72.3334 17.6659 72.5293 17.6156 72.7214 17.5529C72.888 17.5013 73.0421 17.4155 73.1737 17.3011L73.1753 18.3701ZM81.4005 8.83H78.5356V11.9648H76.7895V13.8858H78.5266V20.0514C78.5077 20.4907 78.5979 20.9279 78.7889 21.324C78.9524 21.6379 79.2012 21.8992 79.5067 22.0779C79.8331 22.2609 80.1913 22.3806 80.5622 22.4307C80.98 22.4925 81.4019 22.5228 81.8242 22.5212C82.1092 22.5212 82.3972 22.5212 82.6943 22.5016C82.9651 22.4913 83.235 22.4641 83.5025 22.4202V20.1916C83.3622 20.2213 83.2202 20.2419 83.0772 20.2534C82.9265 20.267 82.7757 20.2745 82.6128 20.2745C82.1288 20.2745 81.8046 20.1916 81.6418 20.0302C81.4789 19.8689 81.4005 19.5462 81.4005 19.0607V13.8858H83.5025V11.9648H81.396L81.4005 8.83ZM93.2627 17.8348C93.0745 17.507 92.8172 17.224 92.5088 17.0055C92.1849 16.7762 91.8294 16.5954 91.4533 16.4687C91.0567 16.336 90.6481 16.2214 90.2304 16.1264C89.8128 16.0314 89.4298 15.944 89.0392 15.8641C88.687 15.7931 88.3391 15.702 87.9973 15.5912C87.7286 15.5088 87.4786 15.3746 87.2615 15.1961C87.1697 15.1203 87.0964 15.0245 87.0473 14.9161C86.9981 14.8076 86.9745 14.6894 86.978 14.5704C86.9672 14.3862 87.0229 14.2043 87.1348 14.0577C87.2411 13.9276 87.3764 13.8244 87.5299 13.7561C87.6939 13.6872 87.8671 13.643 88.0441 13.6249C88.2195 13.6093 88.3957 13.6028 88.5718 13.6053C89.0342 13.5936 89.4926 13.6939 89.9078 13.8979C90.2832 14.0924 90.4928 14.4663 90.532 15.0197H93.2612C93.2318 14.4506 93.0613 13.8977 92.7651 13.4108C92.5001 12.9966 92.1443 12.648 91.7247 12.3915C91.2857 12.1269 90.8033 11.9421 90.2998 11.8457C89.7583 11.7367 89.2071 11.6827 88.6547 11.6843C88.0984 11.6837 87.5432 11.7342 86.9961 11.8351C86.4846 11.9262 85.9925 12.1042 85.5411 12.3614C85.1129 12.6067 84.7547 12.9576 84.5006 13.3807C84.2195 13.8869 84.0833 14.4608 84.1071 15.0393C84.0942 15.4454 84.1922 15.8473 84.3906 16.2018C84.579 16.5183 84.8368 16.7879 85.1445 16.9904C85.4712 17.207 85.8264 17.377 86.2 17.4956C86.5965 17.6237 87.0052 17.7353 87.4213 17.8288C88.2347 17.9864 89.0355 18.2031 89.8173 18.4772C90.3903 18.6913 90.6768 19.0145 90.6768 19.4467C90.6857 19.6729 90.6218 19.896 90.4943 20.083C90.3752 20.2494 90.2207 20.3874 90.042 20.4871C89.8532 20.5909 89.6498 20.6656 89.4388 20.7088C89.2299 20.7556 89.0166 20.7798 88.8025 20.7811C88.527 20.7817 88.2524 20.7477 87.9853 20.6801C87.7357 20.6181 87.4992 20.5119 87.2871 20.3665C87.0837 20.2232 86.9143 20.0368 86.7911 19.8207C86.6583 19.5756 86.5923 19.3001 86.5996 19.0215H83.8613C83.8642 19.636 84.0279 20.2391 84.3363 20.7706C84.6155 21.225 84.9958 21.6089 85.4476 21.8924C85.9233 22.1838 86.4472 22.3881 86.9946 22.4956C87.5787 22.618 88.174 22.6792 88.7708 22.678C89.3581 22.6786 89.944 22.621 90.5199 22.5061C91.0618 22.402 91.5793 22.1974 92.0459 21.903C92.5269 21.6048 92.9192 21.1832 93.182 20.682C93.4448 20.1808 93.5685 19.6184 93.5401 19.0532C93.5536 18.6304 93.4564 18.2115 93.2582 17.8378L93.2627 17.8348ZM98.9608 7.97958L93.5055 22.4126H96.6976L97.83 19.1994H103.225L104.315 22.4126H107.611L102.212 7.98259L98.9608 7.97958ZM98.6593 16.8336L100.54 11.5381H100.579L102.399 16.8336H98.6593ZM117.522 13.3807C117.128 12.8646 116.624 12.4432 116.046 12.1473C115.388 11.8222 114.66 11.6628 113.926 11.6828C113.312 11.675 112.704 11.8059 112.147 12.0658C111.593 12.3395 111.131 12.77 110.82 13.3038H110.779V11.9648H108.05V26.0752H110.915V21.1234H110.954C111.291 21.6237 111.755 22.0246 112.299 22.2845C112.858 22.5503 113.469 22.6854 114.087 22.6795C114.784 22.6928 115.474 22.5376 116.097 22.2272C116.658 21.94 117.149 21.5322 117.533 21.033C117.925 20.5194 118.216 19.9368 118.392 19.3155C118.581 18.6587 118.676 17.9785 118.674 17.295C118.677 16.5744 118.582 15.8567 118.392 15.1614C118.218 14.5178 117.923 13.9134 117.522 13.3807V13.3807ZM115.684 18.4545C115.613 18.8291 115.472 19.1871 115.27 19.51C114.927 19.991 114.422 20.3311 113.847 20.467C113.273 20.603 112.668 20.5254 112.147 20.2489C111.832 20.0683 111.565 19.8149 111.369 19.51C111.165 19.1867 111.022 18.8291 110.945 18.4545C110.857 18.0499 110.813 17.6368 110.814 17.2226C110.813 16.8016 110.853 16.3814 110.933 15.9681C111.006 15.5885 111.147 15.2252 111.349 14.896C111.543 14.5883 111.806 14.3302 112.117 14.1421C112.475 13.9325 112.884 13.8279 113.299 13.8406C113.707 13.8296 114.109 13.9341 114.46 14.1421C114.775 14.3346 115.041 14.5972 115.238 14.9096C115.446 15.2412 115.593 15.6073 115.672 15.9907C115.761 16.3964 115.805 16.8105 115.803 17.2257C115.806 17.638 115.768 18.0496 115.69 18.4545H115.684ZM129.829 15.169C129.657 14.5225 129.362 13.9153 128.959 13.3807C128.566 12.8647 128.062 12.4433 127.485 12.1473C126.826 11.8225 126.098 11.6631 125.363 11.6828C124.749 11.6755 124.142 11.8064 123.585 12.0658C123.031 12.3399 122.569 12.7703 122.257 13.3038H122.218V11.9648H119.483V26.0752H122.347V21.1234H122.388C122.724 21.6233 123.188 22.0241 123.732 22.2845C124.29 22.5503 124.902 22.6854 125.52 22.6795C126.217 22.6928 126.907 22.5376 127.531 22.2272C128.092 21.94 128.582 21.5321 128.965 21.033C129.357 20.5194 129.649 19.9368 129.825 19.3155C130.015 18.6589 130.11 17.9786 130.108 17.295C130.114 16.5773 130.022 15.8621 129.835 15.169H129.829ZM127.115 18.4545C127.045 18.8293 126.904 19.1874 126.701 19.51C126.489 19.8342 126.2 20.1005 125.859 20.2848C125.519 20.4691 125.137 20.5657 124.75 20.5657C124.363 20.5657 123.982 20.4691 123.641 20.2848C123.301 20.1005 123.012 19.8342 122.8 19.51C122.597 19.1864 122.453 18.8289 122.376 18.4545C122.289 18.0498 122.245 17.6368 122.245 17.2226C122.244 16.8015 122.284 16.3814 122.366 15.9681C122.444 15.5873 122.591 15.2239 122.8 14.896C122.994 14.589 123.257 14.331 123.567 14.1421C123.925 13.9325 124.335 13.8279 124.749 13.8406C125.157 13.8294 125.56 13.934 125.91 14.1421C126.226 14.3345 126.493 14.5972 126.69 14.9096C126.898 15.2412 127.045 15.6073 127.124 15.9907C127.213 16.3964 127.257 16.8105 127.255 17.2257C127.253 17.6385 127.21 18.0501 127.127 18.4545H127.115Z" fill="#25D366"/><path d="M30.3139 14.8011C30.1739 10.9697 28.5594 7.34056 25.8073 4.67136C23.0552 2.00216 19.3784 0.499287 15.5446 0.476567H15.4722C12.8904 0.474649 10.3527 1.14494 8.10857 2.42148C5.86449 3.69802 3.99142 5.53682 2.67367 7.75695C1.35592 9.97709 0.6389 12.5021 0.593155 15.0834C0.547411 17.6648 1.17452 20.2135 2.41278 22.479L1.09794 30.3469C1.0958 30.363 1.09712 30.3794 1.10182 30.395C1.10651 30.4106 1.11448 30.425 1.12518 30.4373C1.13588 30.4496 1.14907 30.4594 1.16387 30.4662C1.17867 30.473 1.19475 30.4765 1.21103 30.4766H1.23365L9.01561 28.7456C11.0263 29.7109 13.2282 30.2118 15.4586 30.2112C15.6004 30.2112 15.7421 30.2112 15.8838 30.2112C17.8458 30.1552 19.7773 29.7112 21.5667 28.9048C23.3562 28.0984 24.9682 26.9456 26.3098 25.5129C27.6514 24.0802 28.696 22.396 29.3832 20.5574C30.0704 18.7189 30.3867 16.7625 30.3139 14.8011V14.8011ZM15.8099 27.6252C15.6923 27.6252 15.5747 27.6252 15.4586 27.6252C13.4874 27.6277 11.5444 27.156 9.79366 26.2501L9.39559 26.042L4.11815 27.289L5.09221 21.9497L4.86604 21.5667C3.78579 19.725 3.20393 17.6336 3.17778 15.4985C3.15163 13.3635 3.68208 11.2584 4.71689 9.39075C5.75171 7.52306 7.25518 5.95715 9.07924 4.84724C10.9033 3.73732 12.985 3.1217 15.1194 3.06101C15.238 3.06101 15.3571 3.06101 15.4767 3.06101C18.6992 3.07056 21.7889 4.34564 24.0802 6.61154C26.3715 8.87743 27.681 11.9528 27.7265 15.1749C27.7719 18.3971 26.5498 21.5081 24.3234 23.8378C22.0969 26.1675 19.0444 27.5293 15.8235 27.6298L15.8099 27.6252Z" fill="#25D366"/><path d="M10.2894 8.16663C10.1057 8.17022 9.92456 8.21063 9.75673 8.28548C9.5889 8.36033 9.43779 8.4681 9.31236 8.6024C8.95801 8.96579 7.96736 9.84034 7.91006 11.6769C7.85277 13.5134 9.13594 15.3304 9.31537 15.5852C9.49481 15.84 11.7686 19.8072 15.5141 21.416C17.7156 22.3645 18.6806 22.5273 19.3063 22.5273C19.5642 22.5273 19.7587 22.5002 19.9622 22.4881C20.6483 22.4459 22.1969 21.6528 22.5346 20.7903C22.8724 19.9278 22.895 19.1739 22.806 19.0231C22.7171 18.8723 22.4728 18.7637 22.1049 18.5707C21.737 18.3777 19.9321 17.4127 19.5928 17.277C19.467 17.2184 19.3316 17.1832 19.1932 17.173C19.1031 17.1777 19.0155 17.2043 18.938 17.2506C18.8605 17.2968 18.7954 17.3613 18.7484 17.4383C18.4469 17.8138 17.7548 18.6295 17.5225 18.8648C17.4718 18.9232 17.4093 18.9703 17.3392 19.0031C17.2691 19.0358 17.1928 19.0534 17.1154 19.0548C16.9728 19.0485 16.8333 19.0109 16.7068 18.9447C15.6135 18.4804 14.6167 17.8155 13.768 16.9845C12.975 16.2029 12.3022 15.3081 11.7716 14.3292C11.5666 13.9492 11.7716 13.7532 11.9586 13.5753C12.1456 13.3973 12.3461 13.1516 12.5391 12.9389C12.6975 12.7573 12.8295 12.5543 12.9312 12.3358C12.9838 12.2344 13.0104 12.1215 13.0085 12.0073C13.0067 11.893 12.9765 11.7811 12.9206 11.6814C12.8317 11.4914 12.1667 9.62321 11.8546 8.87381C11.6013 8.23298 11.2997 8.21187 11.0358 8.19227C10.8187 8.17719 10.5699 8.16965 10.3211 8.16211H10.2894" fill="#25D366"/></svg>
